<svg width="32" height="21" viewBox="0 0 32 21" fill="none" xmlns="http://www.w3.org/2000/svg">
<rect x="0.25" y="0.25" width="31.5" height="20.5" fill="#FFF7EA" stroke="#554332" stroke-width="0.5"/>
<path d="M14.1007 11.2V12.85C13.9474 13.05 13.7407 13.25 13.4807 13.45C13.2207 13.65 12.9007 13.8167 12.5207 13.95C12.1474 14.0767 11.7074 14.14 11.2007 14.14C10.4941 14.1333 9.87074 13.98 9.33074 13.68C8.79074 13.3733 8.36741 12.95 8.06074 12.41C7.76074 11.8633 7.61074 11.2267 7.61074 10.5C7.61074 9.77333 7.76074 9.13667 8.06074 8.59C8.36741 8.04333 8.79074 7.62 9.33074 7.32C9.87074 7.01333 10.4941 6.86 11.2007 6.86C11.5674 6.86 11.8974 6.89 12.1907 6.95C12.4841 7.01 12.7474 7.09333 12.9807 7.2C13.2207 7.3 13.4374 7.41333 13.6307 7.54L13.8307 8.95H13.7407C13.6407 8.56333 13.4741 8.24 13.2407 7.98C13.0141 7.71333 12.7274 7.51 12.3807 7.37C12.0341 7.23 11.6407 7.16 11.2007 7.16C10.6407 7.16 10.1474 7.3 9.72074 7.58C9.29408 7.86 8.96074 8.25 8.72074 8.75C8.48074 9.25 8.36074 9.83333 8.36074 10.5C8.36074 11.1667 8.48074 11.75 8.72074 12.25C8.96074 12.75 9.29408 13.14 9.72074 13.42C10.1474 13.6933 10.6407 13.8333 11.2007 13.84C11.4941 13.84 11.7741 13.8067 12.0407 13.74C12.3141 13.6667 12.5707 13.5667 12.8107 13.44C13.0507 13.3067 13.2641 13.15 13.4507 12.97L13.4607 11.2C13.4607 10.9 13.2907 10.75 12.9507 10.75H12.7907V10.65H14.7507V10.75H14.6007C14.2541 10.75 14.0874 10.9 14.1007 11.2Z" fill="#554332"/>
<path d="M21.9568 7C22.6701 7 23.2935 7.14667 23.8268 7.44C24.3668 7.72667 24.7868 8.13333 25.0868 8.66C25.3935 9.18667 25.5468 9.8 25.5468 10.5C25.5468 11.2 25.3935 11.8133 25.0868 12.34C24.7868 12.86 24.3668 13.2667 23.8268 13.56C23.2935 13.8533 22.6701 14 21.9568 14H19.8168L19.8068 13.7C19.8068 13.7 19.8768 13.7 20.0168 13.7C20.1635 13.7 20.3435 13.7 20.5568 13.7C20.7768 13.7 20.9935 13.7 21.2068 13.7C21.4201 13.7 21.5968 13.7 21.7368 13.7C21.8835 13.7 21.9568 13.7 21.9568 13.7C22.5301 13.7 23.0268 13.5667 23.4468 13.3C23.8735 13.0333 24.2035 12.66 24.4368 12.18C24.6768 11.7 24.7968 11.14 24.7968 10.5C24.7968 9.86 24.6768 9.3 24.4368 8.82C24.2035 8.34 23.8735 7.96667 23.4468 7.7C23.0201 7.43333 22.5235 7.3 21.9568 7.3C21.9568 7.3 21.8801 7.3 21.7268 7.3C21.5801 7.3 21.3935 7.3 21.1668 7.3C20.9468 7.3 20.7235 7.3 20.4968 7.3C20.2768 7.3 20.0901 7.3 19.9368 7.3C19.7835 7.3 19.7068 7.3 19.7068 7.3V7H21.9568ZM19.9868 7V14H19.3368V7H19.9868ZM19.3668 13.27V14H18.5668V13.9C18.5668 13.9 18.5868 13.9 18.6268 13.9C18.6735 13.9 18.6968 13.9 18.6968 13.9C18.8701 13.9 19.0168 13.84 19.1368 13.72C19.2635 13.5933 19.3301 13.4433 19.3368 13.27H19.3668ZM19.3668 7.73H19.3368C19.3368 7.55667 19.2735 7.41 19.1468 7.29C19.0201 7.16333 18.8701 7.1 18.6968 7.1C18.6968 7.1 18.6768 7.1 18.6368 7.1C18.5968 7.1 18.5768 7.1 18.5768 7.1L18.5668 7H19.3668V7.73Z" fill="#554332"/>
</svg>
