<svg width="78" height="78" viewBox="0 0 78 78" fill="none" xmlns="http://www.w3.org/2000/svg">
<g clip-path="url(#clip0_26_53)">
<path d="M15.4608 44.8945C11.9784 41.9502 8.57753 39.2603 5.39224 36.3355C1.20589 32.4916 -0.85654 27.8762 0.334 21.977C1.23923 17.4918 2.91413 13.5879 7.15919 11.5327C9.85512 10.2273 12.7988 9.1482 15.7427 8.70117C21.3766 7.84585 27.1075 7.62903 32.8008 8.15212C40.0545 8.81837 46.4168 11.7769 52.0711 16.2908C52.7696 16.8485 53.2368 17.696 53.7402 18.3211C56.1931 18.2488 58.6303 18.0747 61.0627 18.1253C67.7571 18.2642 72.5412 21.519 75.6187 27.3713C77.0125 30.0217 77.757 32.8979 77.9734 35.864C78.1737 38.608 77.2149 41.1133 75.8894 43.4856C73.3197 48.085 70.019 52.0689 65.8223 55.2624C62.5012 57.7894 59.3017 60.4462 55.6622 62.5873C48.8626 66.5876 41.5491 68.7852 33.7993 69.6695C30.7957 70.0123 27.7525 70.0727 24.725 70.1275C20.469 70.2045 17.1162 68.5432 15.2115 64.5878C14.0888 62.2565 12.9122 59.9093 12.1699 57.4458C10.9764 53.4845 11.6883 49.727 14.2779 46.4077C14.6762 45.8972 15.0751 45.3879 15.4608 44.8945ZM67.7016 27.2133C67.6912 27.9279 67.3404 28.7656 68.63 29.2388C68.5737 28.3891 68.528 27.6969 68.4743 26.8859C68.0226 27.0973 67.8364 27.1846 67.6501 27.2718C67.7477 26.4874 68.1492 25.6099 67.0368 25.1385C66.3272 27.3673 66.3272 27.3673 66.9481 28.451C67.2156 28.012 67.4582 27.6134 67.7016 27.2133ZM57.6981 25.4274C57.6771 25.0291 57.656 24.631 57.6129 23.8152C56.8735 24.381 56.4093 24.7362 55.9451 25.0914C55.5668 24.2257 55.9194 23.7318 56.7597 23.4794C59.9332 22.526 63.1667 22.3424 66.3519 23.2079C69.657 24.1059 70.7739 25.8415 70.6399 29.2776C70.6178 29.8474 70.5359 30.4268 70.3907 30.9778C69.8401 33.0672 69.2244 35.1396 68.6857 37.2318C68.1237 39.415 66.916 41.1899 65.2247 42.6051C63.4577 44.0835 61.6265 45.4941 59.7502 46.8314C54.2621 50.742 48.1361 53.5306 42.1606 56.5571C37.2351 59.0518 31.9371 60.5261 26.3809 60.7631C23.7846 60.8739 21.1931 60.6523 18.7833 59.4801C15.8392 58.0482 14.8307 55.6469 15.9458 52.4245C16.5172 53.9632 17.0515 55.4025 17.5857 56.8417C17.6948 56.8133 17.8038 56.7851 17.9126 56.7568C17.6077 54.7718 17.303 52.7869 16.9982 50.8017C18.3233 53.0504 18.1747 55.7441 19.5909 57.9801C19.8261 57.4446 19.9463 56.9081 19.863 56.405C19.7103 55.4832 19.3876 54.5901 19.2259 53.6693C18.9765 52.2498 18.8032 50.8169 18.5978 49.3897C18.7505 49.3626 18.9033 49.3354 19.056 49.3083C19.5078 51.1329 19.9596 52.9578 20.4983 55.1334C22.0215 52.58 20.7161 50.3808 20.9475 48.2314C19.5895 47.3892 18.3187 46.6012 16.9654 45.762C14.8794 47.9774 13.5038 50.3299 13.3563 53.4264C13.1752 57.2276 15.035 60.2078 16.8037 63.2629C17.1329 63.8314 17.6045 64.3173 18.0733 64.9227C18.2678 64.4487 18.3658 64.2101 18.5067 63.8665C19.2964 65.5188 19.6805 67.4679 22.1518 67.2722C21.6777 65.996 21.2436 64.8276 20.8096 63.6592C23.2342 67.6663 23.2342 67.6663 24.5926 67.4709C24.5052 66.9156 24.4179 66.3606 24.3305 65.8053L24.282 65.8475C24.5681 66.2376 24.9127 66.5984 25.1271 67.0244C25.4857 67.7376 26.0874 67.8887 26.7601 67.7901C28.4681 67.5397 30.1997 67.6138 31.9838 67.4463C31.5795 66.3975 31.2082 65.4342 30.8368 64.4708C31.3875 64.8458 31.6616 65.3272 31.889 65.8299C32.3803 66.916 32.9597 67.5387 34.3767 67.1768C38.0723 66.2326 41.9574 65.8525 45.504 64.5383C53.495 61.5775 60.6594 57.1437 66.7712 51.115C69.521 48.4025 71.8245 45.3479 73.6206 41.95C74.3467 40.5764 74.9542 38.9947 75.0639 37.4682C75.3785 33.0836 74.1297 29.0757 71.5985 25.4414C69.9054 23.0104 67.6102 21.4737 64.8633 20.6203C61.1945 19.4803 57.4761 19.5819 53.7491 20.4682C49.8451 21.3966 46.3807 23.3706 42.734 24.9229C36.3013 27.6614 30.5691 31.5109 25.0099 35.6657C24.6369 35.9446 24.3127 36.2886 23.7337 36.8123C25.1357 37.4941 26.2583 38.0404 27.5555 38.6713C27.6819 37.9014 27.7601 37.4247 27.8546 36.8503C27.3049 36.8992 26.8717 36.9377 26.335 36.9854C27.926 34.4442 33.5092 31.0962 36.642 30.7119C37.7007 33.1087 36.6144 35.593 36.7781 38.1099C38.027 37.7361 37.9916 36.7828 38.1418 35.9652C38.488 34.08 38.8022 32.1891 39.1293 30.3006C39.2453 30.3192 39.3611 30.3377 39.4771 30.3563C39.3018 32.3946 39.1265 34.4326 38.921 36.8217C39.7713 36.2497 40.2815 35.9065 40.7245 35.6086C40.7798 33.557 41.0136 31.7006 42.0219 30.0063C41.8591 31.6097 41.6964 33.2131 41.4866 35.2812C45.2255 32.7911 49.0177 31.6804 52.8038 30.5338C53.3528 30.3675 53.7673 29.7573 54.2443 29.3524C55.5476 29.8354 55.9198 29.7436 56.388 28.6932C56.8789 27.5913 57.3066 26.4614 57.7618 25.3436C57.5334 26.5105 57.3052 27.6775 56.9784 29.3474C57.8716 28.7567 58.3925 28.4123 58.7912 28.1485C59.0909 28.2917 59.3536 28.4172 59.7106 28.588C60.2285 26.9384 60.6929 25.4602 61.1899 23.8775C59.6108 23.7825 58.2937 23.7988 57.6981 25.4274ZM34.0656 40.9C35.2033 40.0958 35.676 38.9877 35.811 37.6063C36.0172 35.4958 36.3806 33.4006 36.6775 31.2991C36.5325 31.2222 36.3876 31.1453 36.2426 31.0685C34.3062 32.2586 32.3696 33.4487 30.383 34.6696C30.2161 36.1237 30.0266 37.546 29.8994 38.9738C29.8288 39.7674 30.2404 40.1288 31.0604 40.0321C31.3689 38.245 31.6678 36.5122 31.9668 34.7796C32.1012 34.7992 32.2358 34.8186 32.3702 34.8381C32.2226 36.7265 32.0751 38.615 31.9273 40.5061C32.5692 40.7235 33.036 40.9144 33.521 41.0282C33.6923 41.0685 33.9079 40.9202 34.1034 40.8579L34.0656 40.9ZM62.4319 34.6724C62.391 33.8764 62.3501 33.0804 62.3057 32.2197C63.9413 33.2675 64.8923 35.4121 64.457 37.0054C63.9451 38.8789 62.9598 40.3983 61.2713 41.476C57.7624 43.7154 54.1283 45.2337 49.8289 45.558C42.1097 46.1402 34.9323 44.4695 27.933 41.5076C23.1691 39.4915 18.9652 36.5356 14.8914 33.4344C12.0851 31.2979 9.47957 28.8627 7.71003 25.7049C6.10561 22.8421 6.43883 19.9128 7.87635 17.2246C8.93791 15.2391 10.9981 14.2072 13.0574 13.4328C13.2099 13.5398 13.3625 13.6468 13.515 13.7538C12.8202 15.961 12.1254 18.1684 11.4306 20.3756C13.7023 19.4236 13.3463 16.7235 15.2416 15.1951C14.6263 17.0064 14.108 18.5326 13.5933 20.0479C14.6824 20.5419 14.995 19.986 15.2943 19.2192C15.8122 17.8925 16.4172 16.5997 16.9856 15.2928C17.1401 15.3487 17.2946 15.4044 17.4492 15.4603C16.9536 16.9753 16.4581 18.49 15.9578 20.02C17.0117 20.4261 17.2413 19.8473 17.5354 19.2268C18.3099 17.5928 19.1395 15.9848 19.9471 14.3664C20.0742 14.4277 20.2014 14.4888 20.3286 14.5501C19.6274 16.3819 18.9262 18.2137 18.1821 20.1577C19.9608 20.462 19.8037 19.0195 20.2903 18.3081C20.8609 17.4738 21.2923 16.5442 21.7841 15.6559C21.9037 15.7158 22.0231 15.7757 22.1427 15.8354C21.5722 17.3035 21.0016 18.7715 20.4312 20.2396C20.6089 20.3312 20.7868 20.4229 20.9645 20.5147C22.2285 18.4852 23.4927 16.4558 24.7567 14.4261C24.8989 14.5097 25.0412 14.5934 25.1834 14.6768C24.2464 16.4951 23.3096 18.3133 22.3786 20.12C22.5739 20.2973 22.665 20.4476 22.7835 20.474C23.0599 20.5353 23.3494 20.5369 23.6233 20.5616C24.393 18.0921 25.6939 16.0465 27.3902 14.826C26.4011 16.8622 25.5276 18.6603 24.5992 20.5716C29.7587 21.612 34.892 22.3871 39.7071 24.5408C42.6482 23.124 45.6198 21.6923 48.7492 20.1849C46.4568 18.3323 43.9896 17.2957 41.5109 16.3517C39.0073 15.3982 36.413 14.6826 33.8446 13.8584C37.0065 12.9474 46.687 16.7688 49.3296 19.9763C49.6624 19.8738 50.0176 19.7942 50.3476 19.6544C50.6437 19.529 50.9123 19.338 51.2283 19.1553C51.0109 18.8656 50.8957 18.6823 50.7509 18.5262C50.5551 18.3145 50.352 18.1043 50.1256 17.927C43.7227 12.9123 36.5268 10.1427 28.3214 10.2303C26.8046 10.2465 25.2856 10.1918 23.7714 10.2571C20.9691 10.3779 18.135 10.3447 15.3784 10.7812C12.3977 11.2532 9.48197 12.154 6.83096 13.7209C5.73126 14.3708 4.85897 15.1985 4.53054 16.4532C3.98368 18.5411 3.452 20.6351 2.9906 22.7431C1.95659 27.4655 3.79301 31.2839 7.08591 34.4298C9.79423 37.0176 12.7691 39.326 15.6209 41.7637C21.1442 46.4848 27.8106 48.7113 34.6552 50.521C35.247 50.0242 35.8198 49.5435 36.3926 49.0627C36.4549 49.133 36.5172 49.2031 36.5795 49.2733C36.171 49.7208 35.7623 50.1682 35.332 50.6394C36.8115 51.2789 36.8105 51.2775 37.6075 50.6072C38.3119 50.0151 38.8653 49.1877 40.3058 48.7774C39.2666 49.9442 38.5712 50.725 37.7476 51.6498C39.644 52.3239 40.3276 50.637 41.8332 50.1438C41.3434 50.8544 41.0188 51.3252 40.6748 51.8243C41.6513 52.5541 42.4064 52.4732 43.1747 51.6077C44.0847 50.5827 45.0746 49.6271 46.0535 48.6656C46.3977 48.3276 46.8118 48.0606 47.1939 47.7614C47.2638 47.854 47.3337 47.9466 47.4035 48.0393C46.2016 49.4085 44.9997 50.7775 43.7952 52.15C44.7088 52.834 45.1978 52.3402 45.6542 51.8762C46.92 50.5895 48.1576 49.2747 49.4204 47.985C49.881 47.5144 50.3808 47.0823 50.8627 46.6327C50.9524 46.7317 51.0418 46.8306 51.1315 46.9296C50.3928 47.9299 49.654 48.9301 48.9153 49.9302C55.1948 47.2814 60.7888 43.7433 65.406 38.952C64.8402 36.0023 65.6765 32.9061 63.2609 30.5995C60.3521 30.7378 57.4933 31.205 54.5416 32.6851C55.9831 33.2651 56.6 35.0957 58.3857 34.0469C57.6204 35.7102 59.2864 36.5498 59.497 38.0558C60.0812 37.5295 60.4945 37.1571 60.908 36.7846C60.5342 37.7754 60.1604 38.7663 59.7867 39.7572C60.8271 38.9404 61.5167 37.9442 62.3794 37.1316C63.3124 36.2527 63.3421 35.5132 62.4319 34.6724ZM22.0768 35.5453C26.2961 31.4921 31.5204 29.0454 36.6352 25.9839C36.1009 25.7203 35.8659 25.5652 35.6077 25.4831C28.8269 23.3283 21.84 22.3653 14.7634 22.0684C12.6978 21.9818 10.6489 22.5171 8.72428 23.3874C10.2458 26.8859 15.6034 31.7746 22.0768 35.5453ZM35.9372 41.7264C43.0141 43.568 50.0617 44.1368 57.088 41.8384C57.5897 37.9841 55.457 35.8532 52.8465 33.9672C52.1459 33.4611 51.5138 33.3894 50.6545 33.6316C45.1586 35.1803 40.4198 38.0947 35.9372 41.7264ZM22.2191 58.8637C29.002 58.9718 35.0962 57.3478 41.2775 54.2743C40.4536 53.9672 40.072 53.771 39.6667 53.6839C38.2652 53.3828 36.838 53.1872 35.4528 52.8276C32.9513 52.1783 30.476 51.4296 27.9837 50.7444C27.2159 50.5332 26.4528 50.3645 25.8175 51.1397C24.0224 53.3299 22.4585 55.619 22.2191 58.8637ZM8.1329 21.4779C8.8824 19.8293 9.47418 18.528 10.066 17.2264C10.1676 17.2777 10.2694 17.329 10.371 17.3806C9.94177 18.6376 9.51271 19.8946 8.93491 21.5865C9.70578 21.1892 10.254 21.0925 10.3598 20.8224C11.1331 18.8494 11.8175 16.8419 12.5902 14.6766C8.78497 16.4945 7.71423 18.0526 8.1329 21.4779ZM65.055 25.3995C64.8951 26.3283 64.7571 27.1297 64.6191 27.9311C64.7783 27.9834 64.9374 28.0357 65.0967 28.088C66.101 27.2437 65.9506 25.8713 66.519 24.6466C65.5076 24.3902 64.699 24.1852 63.7305 23.9398C63.3324 25.3526 62.9756 26.6182 62.5727 28.0477C64.5666 28.0726 63.899 26.1444 65.055 25.3995ZM60.5805 28.3108C60.743 28.3651 60.9054 28.4192 61.0679 28.4736C62.5809 27.386 62.5387 25.6033 63.0738 23.5125C62.2946 23.8861 61.675 23.9875 61.5912 24.2564C61.1763 25.5834 60.9034 26.9548 60.5805 28.3108ZM21.4966 48.3923C21.7248 49.8703 21.8911 50.9473 22.1175 52.4129C23.0708 51.304 23.7259 50.542 24.494 49.6487C23.426 49.2013 22.6478 48.8748 21.4966 48.3923ZM67.567 34.5121C67.8276 33.4172 68.0196 32.6108 68.2179 31.7782C67.2396 31.3464 66.4288 30.9886 65.3419 30.5088C66.1509 31.9643 66.7852 33.1053 67.567 34.5121ZM29.0457 39.2429C29.2398 38.039 29.4336 36.8353 29.6594 35.4345C27.935 36.4206 27.7749 37.1621 29.0457 39.2429Z" fill="#7C6752"/>
<path d="M28.5861 63.333C28.9031 64.1402 29.22 64.9474 29.5371 65.7546C29.4151 65.7987 29.2931 65.8431 29.1709 65.8872C28.8804 65.0722 28.5897 64.257 28.2992 63.442C28.3946 63.4057 28.4903 63.3695 28.5861 63.333Z" fill="#7C6752"/>
<path d="M26.3502 64.0156C26.5393 64.4119 26.7281 64.8083 26.917 65.2046C26.8313 65.2443 26.7457 65.284 26.66 65.324C26.4776 64.9247 26.2953 64.5251 26.1128 64.1258C26.1921 64.0891 26.2711 64.0524 26.3502 64.0156Z" fill="#7C6752"/>
<path d="M24.3303 65.8056C24.0154 65.3283 23.7006 64.8511 23.3859 64.3737C23.5297 64.3096 23.6734 64.2457 23.8172 64.1816C23.9723 64.7367 24.1276 65.2915 24.2824 65.8472C24.282 65.8478 24.3303 65.8056 24.3303 65.8056Z" fill="#7C6752"/>
<path d="M55.1367 27.1548C54.8287 27.9095 54.5206 28.6644 54.2123 29.4191C54.5204 28.6644 54.8285 27.9097 55.1367 27.1548Z" fill="#7C6752"/>
<path d="M34.1029 40.8582C33.6591 38.8828 33.8851 36.6606 35.0163 34.1602C34.9027 35.2726 34.8213 36.3895 34.667 37.4962C34.5088 38.63 34.2792 39.7541 34.0732 40.8911C34.0656 40.9001 34.1029 40.8582 34.1029 40.8582Z" fill="#7C6752"/>
</g>
<defs>
<clipPath id="clip0_26_53">
<rect width="78" height="78" fill="white"/>
</clipPath>
</defs>
</svg>
