<svg width="70" height="30" viewBox="0 0 70 30" fill="none" xmlns="http://www.w3.org/2000/svg">
<g clip-path="url(#clip0_28_5)">
<path d="M31.9821 15.7555C31.5357 15.378 31.0997 15.0332 30.6913 14.6582C30.1546 14.1654 29.8902 13.5737 30.0428 12.8174C30.1589 12.2423 30.3736 11.7418 30.9178 11.4783C31.2635 11.311 31.6409 11.1726 32.0183 11.1153C32.7406 11.0057 33.4753 10.9779 34.2052 11.0449C35.1352 11.1304 35.9509 11.5097 36.6758 12.0884C36.7653 12.1599 36.8252 12.2685 36.8897 12.3487C37.2042 12.3394 37.5167 12.3171 37.8285 12.3236C38.6868 12.3414 39.3001 12.7586 39.6947 13.5089C39.8734 13.8487 39.9688 14.2175 39.9966 14.5977C40.0222 14.9495 39.8993 15.2707 39.7294 15.5749C39.3999 16.1645 38.9768 16.6753 38.4387 17.0847C38.013 17.4087 37.6028 17.7493 37.1362 18.0238C36.2644 18.5367 35.3268 18.8184 34.3332 18.9318C33.9481 18.9757 33.558 18.9835 33.1698 18.9905C32.6242 19.0004 32.1944 18.7874 31.9502 18.2803C31.8062 17.9814 31.6554 17.6805 31.5602 17.3646C31.4072 16.8568 31.4985 16.3751 31.8305 15.9495C31.8815 15.8841 31.9327 15.8188 31.9821 15.7555ZM38.6797 13.4887C38.6783 13.5803 38.6334 13.6877 38.7987 13.7484C38.7915 13.6394 38.7856 13.5507 38.7787 13.4467C38.7208 13.4738 38.6969 13.485 38.6731 13.4962C38.6856 13.3956 38.7371 13.2831 38.5944 13.2227C38.5035 13.5084 38.5035 13.5084 38.5831 13.6474C38.6174 13.5911 38.6485 13.54 38.6797 13.4887ZM37.3972 13.2597C37.3945 13.2087 37.3918 13.1576 37.3862 13.053C37.2915 13.1256 37.2319 13.1711 37.1724 13.2166C37.1239 13.1057 37.1691 13.0423 37.2769 13.01C37.6837 12.8878 38.0983 12.8642 38.5066 12.9752C38.9304 13.0903 39.0736 13.3128 39.0564 13.7533C39.0535 13.8264 39.043 13.9007 39.0244 13.9713C38.9538 14.2392 38.8749 14.5049 38.8058 14.7731C38.7338 15.053 38.5789 15.2806 38.3621 15.462C38.1356 15.6515 37.9008 15.8324 37.6603 16.0038C36.9567 16.5052 36.1713 16.8627 35.4052 17.2507C34.7737 17.5705 34.0945 17.7596 33.3821 17.7899C33.0493 17.8041 32.717 17.7757 32.4081 17.6255C32.0306 17.4419 31.9014 17.134 32.0443 16.7209C32.1176 16.9182 32.1861 17.1027 32.2546 17.2872C32.2685 17.2836 32.2825 17.2799 32.2965 17.2763C32.2574 17.0218 32.2183 16.7673 32.1792 16.5128C32.3491 16.8011 32.3301 17.1465 32.5116 17.4331C32.5418 17.3645 32.5572 17.2957 32.5465 17.2312C32.5269 17.113 32.4856 16.9985 32.4648 16.8805C32.4329 16.6985 32.4106 16.5148 32.3843 16.3318C32.4039 16.3283 32.4235 16.3249 32.4431 16.3214C32.501 16.5553 32.5589 16.7893 32.628 17.0682C32.8232 16.7408 32.6559 16.4589 32.6856 16.1833C32.5114 16.0753 32.3485 15.9743 32.175 15.8667C31.9076 16.1507 31.7312 16.4524 31.7123 16.8493C31.6891 17.3367 31.9275 17.7188 32.1543 18.1104C32.1965 18.1833 32.257 18.2456 32.3171 18.3232C32.342 18.2625 32.3546 18.2319 32.3726 18.1878C32.4739 18.3997 32.5231 18.6495 32.84 18.6244C32.7792 18.4608 32.7235 18.311 32.6679 18.1612C32.9787 18.675 32.9787 18.675 33.1529 18.6499C33.1417 18.5787 33.1305 18.5076 33.1193 18.4364L33.113 18.4418C33.1497 18.4918 33.1939 18.5381 33.2214 18.5927C33.2674 18.6841 33.3445 18.7035 33.4308 18.6908C33.6497 18.6587 33.8717 18.6682 34.1005 18.6468C34.0486 18.5123 34.001 18.3888 33.9534 18.2653C34.024 18.3134 34.0592 18.3751 34.0883 18.4395C34.1513 18.5788 34.2256 18.6586 34.4072 18.6122C34.881 18.4912 35.3791 18.4424 35.8338 18.2739C36.8583 17.8943 37.7768 17.3259 38.5604 16.553C38.9129 16.2052 39.2082 15.8136 39.4385 15.378C39.5316 15.2019 39.6095 14.9991 39.6235 14.8034C39.6639 14.2413 39.5038 13.7275 39.1793 13.2615C38.9622 12.9499 38.6679 12.7528 38.3158 12.6434C37.8454 12.4973 37.3687 12.5103 36.8909 12.6239C36.3904 12.743 35.9462 12.996 35.4787 13.195C34.654 13.5461 33.9191 14.0397 33.2064 14.5723C33.1586 14.6081 33.117 14.6522 33.0428 14.7193C33.2225 14.8067 33.3664 14.8768 33.5327 14.9577C33.5489 14.859 33.559 14.7978 33.5711 14.7242C33.5006 14.7305 33.4451 14.7354 33.3763 14.7415C33.5802 14.4157 34.296 13.9865 34.6977 13.9372C34.8334 14.2445 34.6941 14.563 34.7151 14.8857C34.8752 14.8378 34.8707 14.7155 34.8899 14.6107C34.9343 14.369 34.9746 14.1266 35.0165 13.8845C35.0314 13.8869 35.0463 13.8893 35.0611 13.8916C35.0387 14.1529 35.0162 14.4142 34.9899 14.7205C35.0989 14.6472 35.1643 14.6032 35.2211 14.565C35.2282 14.302 35.2581 14.064 35.3874 13.8468C35.3665 14.0523 35.3457 14.2579 35.3188 14.523C35.7981 14.2038 36.2843 14.0614 36.7697 13.9144C36.8401 13.8931 36.8932 13.8148 36.9544 13.7629C37.1215 13.8249 37.1692 13.8131 37.2292 13.6784C37.2921 13.5371 37.347 13.3923 37.4053 13.249C37.3761 13.3986 37.3468 13.5482 37.3049 13.7623C37.4194 13.6866 37.4862 13.6424 37.5373 13.6086C37.5757 13.6269 37.6094 13.643 37.6552 13.6649C37.7216 13.4534 37.7811 13.2639 37.8448 13.061C37.6424 13.0488 37.4735 13.0509 37.3972 13.2597ZM34.3674 15.2434C34.5132 15.1403 34.5738 14.9982 34.5911 14.8211C34.6176 14.5505 34.6642 14.2819 34.7022 14.0125C34.6836 14.0026 34.6651 13.9928 34.6465 13.9829C34.3982 14.1355 34.1499 14.2881 33.8952 14.4446C33.8738 14.631 33.8495 14.8134 33.8332 14.9964C33.8242 15.0982 33.877 15.1445 33.9821 15.1321C34.0216 14.903 34.0599 14.6809 34.0983 14.4587C34.1155 14.4612 34.1328 14.4637 34.15 14.4662C34.1311 14.7083 34.1122 14.9504 34.0932 15.1929C34.1755 15.2208 34.2354 15.2452 34.2975 15.2598C34.3195 15.265 34.3471 15.246 34.3722 15.238L34.3674 15.2434ZM38.0041 14.445C37.9988 14.3429 37.9936 14.2409 37.9879 14.1305C38.1976 14.2649 38.3195 14.5398 38.2637 14.7441C38.1981 14.9843 38.0717 15.1791 37.8553 15.3172C37.4054 15.6043 36.9395 15.799 36.3883 15.8406C35.3987 15.9152 34.4785 15.701 33.5811 15.3213C32.9704 15.0628 32.4314 14.6839 31.9091 14.2863C31.5493 14.0123 31.2153 13.7001 30.9884 13.2953C30.7827 12.9283 30.8255 12.5527 31.0098 12.2081C31.1459 11.9535 31.41 11.8212 31.674 11.722C31.6936 11.7357 31.7131 11.7494 31.7327 11.7631C31.6436 12.0461 31.5545 12.3291 31.4654 12.6121C31.7567 12.49 31.711 12.1438 31.954 11.9479C31.8751 12.1801 31.8087 12.3758 31.7427 12.57C31.8823 12.6334 31.9224 12.5621 31.9608 12.4638C32.0272 12.2937 32.1047 12.128 32.1776 11.9604C32.1974 11.9676 32.2172 11.9747 32.2371 11.9819C32.1735 12.1761 32.11 12.3703 32.0458 12.5665C32.181 12.6185 32.2104 12.5443 32.2481 12.4648C32.3474 12.2553 32.4538 12.0491 32.5573 11.8416C32.5736 11.8495 32.5899 11.8573 32.6062 11.8652C32.5163 12.1 32.4264 12.3349 32.331 12.5841C32.5591 12.6231 32.5389 12.4382 32.6013 12.347C32.6744 12.24 32.7298 12.1209 32.7928 12.007C32.8081 12.0147 32.8234 12.0223 32.8388 12.03C32.7656 12.2182 32.6925 12.4064 32.6194 12.5946C32.6421 12.6064 32.665 12.6181 32.6877 12.6299C32.8498 12.3697 33.0119 12.1095 33.1739 11.8493C33.1921 11.86 33.2104 11.8707 33.2286 11.8814C33.1085 12.1146 32.9884 12.3477 32.869 12.5793C32.8941 12.602 32.9057 12.6213 32.9209 12.6247C32.9564 12.6325 32.9935 12.6327 33.0286 12.6359C33.1273 12.3193 33.2941 12.057 33.5115 11.9006C33.3847 12.1616 33.2727 12.3922 33.1537 12.6372C33.8152 12.7706 34.4733 12.8699 35.0906 13.1461C35.4677 12.9644 35.8487 12.7809 36.2499 12.5876C35.956 12.3501 35.6397 12.2172 35.3219 12.0962C35.0009 11.9739 34.6683 11.8822 34.339 11.7765C34.7444 11.6597 35.9855 12.1496 36.3243 12.5609C36.367 12.5477 36.4125 12.5375 36.4548 12.5196C36.4928 12.5035 36.5272 12.479 36.5677 12.4556C36.5398 12.4185 36.5251 12.395 36.5065 12.3749C36.4814 12.3478 36.4554 12.3209 36.4263 12.2981C35.6055 11.6552 34.6829 11.3001 33.6309 11.3114C33.4365 11.3135 33.2417 11.3064 33.0476 11.3148C32.6883 11.3303 32.325 11.326 31.9716 11.382C31.5894 11.4425 31.2156 11.558 30.8757 11.7589C30.7348 11.8422 30.6229 11.9483 30.5808 12.1092C30.5107 12.3769 30.4425 12.6453 30.3834 12.9156C30.2508 13.521 30.4863 14.0106 30.9084 14.4139C31.2556 14.7456 31.637 15.0416 32.0027 15.3541C32.7108 15.9594 33.5654 16.2448 34.443 16.4768C34.5188 16.4132 34.5923 16.3515 34.6657 16.2899C34.6737 16.2989 34.6817 16.3079 34.6897 16.3169C34.6373 16.3743 34.5849 16.4316 34.5297 16.492C34.7194 16.574 34.7193 16.5738 34.8215 16.4879C34.9118 16.412 34.9827 16.3059 35.1674 16.2533C35.0342 16.4029 34.945 16.503 34.8394 16.6216C35.0825 16.708 35.1702 16.4917 35.3632 16.4285C35.3004 16.5196 35.2588 16.58 35.2147 16.6439C35.3399 16.7375 35.4367 16.7271 35.5352 16.6162C35.6519 16.4848 35.7788 16.3623 35.9043 16.239C35.9484 16.1956 36.0015 16.1614 36.0505 16.1231C36.0594 16.1349 36.0684 16.1468 36.0774 16.1587C35.9233 16.3342 35.7692 16.5097 35.6147 16.6857C35.7319 16.7734 35.7946 16.7101 35.8531 16.6506C36.0154 16.4856 36.174 16.3171 36.3359 16.1517C36.395 16.0914 36.4591 16.036 36.5208 15.9784C36.5323 15.991 36.5438 16.0037 36.5553 16.0164C36.4606 16.1447 36.3659 16.2729 36.2712 16.4011C37.0762 16.0615 37.7934 15.6079 38.3854 14.9936C38.3128 14.6155 38.42 14.2185 38.1103 13.9228C37.7374 13.9405 37.3709 14.0004 36.9925 14.1902C37.1773 14.2646 37.2564 14.4992 37.4853 14.3648C37.3872 14.578 37.6008 14.6857 37.6278 14.8787C37.7027 14.8113 37.7557 14.7635 37.8087 14.7158C37.7608 14.8428 37.7129 14.9698 37.6649 15.0969C37.7983 14.9922 37.8867 14.8644 37.9973 14.7603C38.117 14.6476 38.1208 14.5528 38.0041 14.445ZM32.8303 14.5569C33.3713 14.0373 34.0411 13.7236 34.6968 13.3311C34.6283 13.2973 34.5982 13.2774 34.5651 13.2669C33.6957 12.9906 32.8 12.8671 31.8927 12.8291C31.6279 12.818 31.3652 12.8866 31.1185 12.9982C31.3135 13.4467 32.0004 14.0735 32.8303 14.5569ZM34.6073 15.3493C35.5146 15.5854 36.4181 15.6584 37.3189 15.3637C37.3833 14.8696 37.1098 14.5964 36.7752 14.3546C36.6854 14.2897 36.6043 14.2805 36.4941 14.3115C35.7895 14.5101 35.182 14.8837 34.6073 15.3493ZM32.8486 17.5464C33.7182 17.5603 34.4995 17.3521 35.292 16.958C35.1863 16.9187 35.1374 16.8935 35.0855 16.8824C34.9058 16.8438 34.7228 16.8187 34.5452 16.7726C34.2245 16.6893 33.9072 16.5933 33.5876 16.5055C33.4892 16.4784 33.3914 16.4568 33.3099 16.5562C33.0798 16.837 32.8793 17.1304 32.8486 17.5464ZM31.0427 12.7534C31.1387 12.542 31.2146 12.3752 31.2905 12.2083C31.3035 12.2149 31.3166 12.2215 31.3296 12.2281C31.2746 12.3892 31.2196 12.5504 31.1455 12.7673C31.2443 12.7164 31.3146 12.704 31.3282 12.6693C31.4273 12.4164 31.515 12.159 31.6141 11.8814C31.1263 12.1145 30.989 12.3142 31.0427 12.7534ZM38.3404 13.2561C38.3199 13.3752 38.3022 13.478 38.2845 13.5807C38.3049 13.5874 38.3253 13.5941 38.3457 13.6008C38.4745 13.4926 38.4552 13.3166 38.5281 13.1596C38.3984 13.1268 38.2947 13.1005 38.1706 13.069C38.1195 13.2501 38.0738 13.4124 38.0221 13.5957C38.2778 13.5989 38.1922 13.3516 38.3404 13.2561ZM37.7667 13.6294C37.7875 13.6364 37.8084 13.6433 37.8292 13.6503C38.0232 13.5108 38.0178 13.2823 38.0864 13.0142C37.9865 13.0621 37.907 13.0751 37.8963 13.1096C37.8431 13.2797 37.8081 13.4555 37.7667 13.6294ZM32.7559 16.2039C32.7852 16.3934 32.8065 16.5315 32.8356 16.7194C32.9578 16.5772 33.0418 16.4795 33.1402 16.365C33.0033 16.3077 32.9035 16.2658 32.7559 16.2039ZM38.6624 14.4244C38.6958 14.2841 38.7204 14.1807 38.7459 14.0739C38.6204 14.0186 38.5165 13.9727 38.3771 13.9112C38.4809 14.0978 38.5622 14.2441 38.6624 14.4244ZM33.7238 15.0309C33.7487 14.8766 33.7735 14.7223 33.8025 14.5427C33.5814 14.6691 33.5609 14.7642 33.7238 15.0309Z" fill="#7C6752"/>
<path d="M33.6649 18.1196C33.7055 18.2231 33.7461 18.3266 33.7868 18.4301C33.7711 18.4357 33.7555 18.4414 33.7398 18.4471C33.7026 18.3426 33.6653 18.2381 33.6281 18.1336C33.6403 18.1289 33.6526 18.1243 33.6649 18.1196Z" fill="#7C6752"/>
<path d="M33.3782 18.207C33.4025 18.2578 33.4267 18.3087 33.4509 18.3595C33.4399 18.3646 33.4289 18.3696 33.4179 18.3748C33.3945 18.3236 33.3712 18.2724 33.3478 18.2212C33.3579 18.2165 33.3681 18.2117 33.3782 18.207Z" fill="#7C6752"/>
<path d="M33.1193 18.4362C33.0789 18.375 33.0385 18.3139 32.9982 18.2527C33.0166 18.2444 33.0351 18.2362 33.0535 18.228C33.0734 18.2992 33.0933 18.3703 33.1131 18.4416C33.1131 18.4416 33.1193 18.4362 33.1193 18.4362Z" fill="#7C6752"/>
<path d="M37.0688 13.481C37.0293 13.5777 36.9898 13.6745 36.9503 13.7712C36.9898 13.6745 37.0293 13.5777 37.0688 13.481Z" fill="#7C6752"/>
<path d="M34.3722 15.2381C34.3153 14.9849 34.3442 14.7 34.4893 14.3794C34.4747 14.522 34.4643 14.6652 34.4445 14.8071C34.4242 14.9525 34.3948 15.0966 34.3684 15.2423C34.3674 15.2435 34.3722 15.2381 34.3722 15.2381Z" fill="#7C6752"/>
</g>
<path d="M22.1317 14.56V18.355C21.779 18.815 21.3037 19.275 20.7057 19.735C20.1077 20.195 19.3717 20.5783 18.4977 20.885C17.639 21.1763 16.627 21.322 15.4617 21.322C13.8364 21.3067 12.4027 20.954 11.1607 20.264C9.91871 19.5587 8.94504 18.585 8.23971 17.343C7.54971 16.0857 7.20471 14.6213 7.20471 12.95C7.20471 11.2787 7.54971 9.81433 8.23971 8.557C8.94504 7.29967 9.91871 6.326 11.1607 5.636C12.4027 4.93067 13.8364 4.578 15.4617 4.578C16.305 4.578 17.064 4.647 17.7387 4.785C18.4134 4.923 19.019 5.11467 19.5557 5.36C20.1077 5.59 20.606 5.85067 21.0507 6.142L21.5107 9.385H21.3037C21.0737 8.49567 20.6904 7.752 20.1537 7.154C19.6324 6.54067 18.973 6.073 18.1757 5.751C17.3784 5.429 16.4737 5.268 15.4617 5.268C14.1737 5.268 13.039 5.59 12.0577 6.234C11.0764 6.878 10.3097 7.775 9.75771 8.925C9.20571 10.075 8.92971 11.4167 8.92971 12.95C8.92971 14.4833 9.20571 15.825 9.75771 16.975C10.3097 18.125 11.0764 19.022 12.0577 19.666C13.039 20.2947 14.1737 20.6167 15.4617 20.632C16.1364 20.632 16.7804 20.5553 17.3937 20.402C18.0224 20.2333 18.6127 20.0033 19.1647 19.712C19.7167 19.4053 20.2074 19.045 20.6367 18.631L20.6597 14.56C20.6597 13.87 20.2687 13.525 19.4867 13.525H19.1187V13.295H23.6267V13.525H23.2817C22.4844 13.525 22.101 13.87 22.1317 14.56Z" fill="#554332"/>
<path d="M54.9006 4.9C56.5413 4.9 57.975 5.23733 59.2016 5.912C60.4436 6.57133 61.4096 7.50667 62.0996 8.718C62.805 9.92933 63.1576 11.34 63.1576 12.95C63.1576 14.56 62.805 15.9707 62.0996 17.182C61.4096 18.378 60.4436 19.3133 59.2016 19.988C57.975 20.6627 56.5413 21 54.9006 21H49.9786L49.9556 20.31C49.9556 20.31 50.1166 20.31 50.4386 20.31C50.776 20.31 51.19 20.31 51.6806 20.31C52.1866 20.31 52.685 20.31 53.1756 20.31C53.6663 20.31 54.0726 20.31 54.3946 20.31C54.732 20.31 54.9006 20.31 54.9006 20.31C56.2193 20.31 57.3616 20.0033 58.3276 19.39C59.309 18.7767 60.068 17.918 60.6046 16.814C61.1566 15.71 61.4326 14.422 61.4326 12.95C61.4326 11.478 61.1566 10.19 60.6046 9.086C60.068 7.982 59.309 7.12333 58.3276 6.51C57.3463 5.89667 56.204 5.59 54.9006 5.59C54.9006 5.59 54.7243 5.59 54.3716 5.59C54.0343 5.59 53.605 5.59 53.0836 5.59C52.5776 5.59 52.064 5.59 51.5426 5.59C51.0366 5.59 50.6073 5.59 50.2546 5.59C49.902 5.59 49.7256 5.59 49.7256 5.59V4.9H54.9006ZM50.3696 4.9V21H48.8746V4.9H50.3696ZM48.9436 19.321V21H47.1036V20.77C47.1036 20.77 47.1496 20.77 47.2416 20.77C47.349 20.77 47.4026 20.77 47.4026 20.77C47.8013 20.77 48.1386 20.632 48.4146 20.356C48.706 20.0647 48.8593 19.7197 48.8746 19.321H48.9436ZM48.9436 6.579H48.8746C48.8746 6.18033 48.729 5.843 48.4376 5.567C48.1463 5.27567 47.8013 5.13 47.4026 5.13C47.4026 5.13 47.3566 5.13 47.2646 5.13C47.1726 5.13 47.1266 5.13 47.1266 5.13L47.1036 4.9H48.9436V6.579Z" fill="#554332"/>
<defs>
<clipPath id="clip0_28_5">
<rect width="10" height="10" fill="white" transform="translate(30 10)"/>
</clipPath>
</defs>
</svg>
